<?xml version="1.0" encoding="utf-8"?>
<!-- Generator: Adobe Illustrator 23.0.1, SVG Export Plug-In . SVG Version: 6.00 Build 0)  -->
<svg version="1.1" id="Layer_1" xmlns="http://www.w3.org/2000/svg" xmlns:xlink="http://www.w3.org/1999/xlink" x="0px" y="0px"
	 viewBox="0 0 448 512" style="enable-background:new 0 0 448 512;" xml:space="preserve">
<style type="text/css">
	.st0{opacity:0.4;fill:#409DC6;enable-background:new    ;}
	.st1{fill:#177596;}
</style>
<path class="st0" d="M224,80.6c83.2-51.7,163.1-64.9,201.7-26.3s25.4,118.5-26.3,201.7c-11.5-18.4-24.2-36.1-37.9-52.9
	c27.8-47.2,36.6-86.7,19.4-104c-29.4-29.4-123.5,17-210.1,103.7c-9.1,9.1-18,18.5-26.6,28.2c-10.2-13-19.5-26.6-28.1-40.8
	c-2.7-4.5-5.2-8.8-7.3-12.8c5.8-6.3,11.7-12.5,17.9-18.7c14.1-14.1,29-27.5,44.5-40.2c2.1-1.7,4.3-3.5,6.4-5.2l0.3-0.2
	c6.5-5.2,13.1-10.1,19.7-14.8l0.2-0.1c2-1.4,4-2.8,6-4.2l1.2-0.8c1.7-1.2,3.4-2.3,5-3.4l1.4-1c1.8-1.2,3.5-2.3,5.3-3.5l1-0.6
	C219.7,83.3,221.9,82,224,80.6L224,80.6z M224,224c-17.7,0-32,14.3-32,32s14.3,32,32,32s32-14.3,32-32S241.7,224,224,224z
	 M277.2,309.2c-9.3,9.3-18.7,18.2-28.2,26.6c16.7,13.1,34.4,24.9,53,35.2c0.2,0.1,0.3,0.2,0.5,0.3c6.3-5.8,12.5-11.7,18.7-17.9
	c14.1-14.1,27.5-29,40.1-44.5c-11-18.5-23.2-36.1-36.6-52.9C310,274.6,294.1,292.4,277.2,309.2L277.2,309.2z M171.1,393.5
	c-47.2,27.8-86.7,36.6-104,19.4s-8.4-56.8,19.4-104c-13.7-16.8-26.4-34.5-37.8-52.9c-51.7,83.2-64.9,163.1-26.3,201.7
	s118.5,25.4,201.7-26.3C205.6,419.9,187.9,407.2,171.1,393.5z"/>
<path class="st1" d="M425.7,457.7c-53.8,53.8-187.6,7-299-104.4S-31.5,108.1,22.3,54.3C60.9,15.7,140.8,28.9,224,80.6
	c-18.4,11.5-36.1,24.1-52.9,37.9c-47.2-27.8-86.7-36.6-104-19.4c-29.4,29.4,17,123.5,103.6,210.1s180.7,133,210.1,103.6
	s-17-123.5-103.6-210.1c-9.3-9.3-18.7-18.2-28.2-26.6c13-10.1,26.6-19.5,40.8-28.1c4.5-2.7,8.8-5.2,12.8-7.3
	c6.3,5.8,12.5,11.8,18.7,17.9C432.7,270,479.5,403.9,425.7,457.7z"/>
</svg>
