<?xml version="1.0" encoding="utf-8"?>
<!-- Generator: Adobe Illustrator 23.0.1, SVG Export Plug-In . SVG Version: 6.00 Build 0)  -->
<svg version="1.1" id="Layer_1" xmlns="http://www.w3.org/2000/svg" xmlns:xlink="http://www.w3.org/1999/xlink" x="0px" y="0px"
	 viewBox="0 0 512 512" style="enable-background:new 0 0 512 512;" xml:space="preserve">
<style type="text/css">
	.st0{opacity:0.4;fill:#FFFFFF;enable-background:new    ;}
	.st1{fill:#FFFFFF;}
</style>
<path class="st0" d="M400,32h-64c-8.8,0-16,7.2-16,16v48h96V48C416,39.2,408.8,32,400,32z M176,32h-64c-8.8,0-16,7.2-16,16v48h96V48
	C192,39.2,184.8,32,176,32z M224,288h64V128h-64V288z"/>
<path class="st1" d="M63.9,160C61.4,253.8,3.5,274.2,0,404v44c0,17.7,14.3,32,32,32h96c17.7,0,32-14.3,32-32V288h32V128H95.8
	C78.2,128,64.4,142.4,63.9,160z M448.1,160c-0.5-17.6-14.3-32-31.9-32H320v160h32v160c0,17.7,14.3,32,32,32h96c17.7,0,32-14.3,32-32
	v-44C508.5,274.2,450.6,253.8,448.1,160z"/>
</svg>
