<?xml version="1.0" encoding="utf-8"?>
<!-- Generator: Adobe Illustrator 23.0.1, SVG Export Plug-In . SVG Version: 6.00 Build 0)  -->
<svg version="1.1" id="Layer_1" xmlns="http://www.w3.org/2000/svg" xmlns:xlink="http://www.w3.org/1999/xlink" x="0px" y="0px"
	 viewBox="0 0 448 512" style="enable-background:new 0 0 448 512;" xml:space="preserve">
<style type="text/css">
	.st0{opacity:0.4;fill:#5E5E5E;enable-background:new    ;}
	.st1{fill:#5E5E5E;}
</style>
<path class="st0" d="M96,448c-19.2,0-32-12.8-32-32s16-32,32-32h319.3c-1.9,16.2-1.8,48.4,0.5,64H96z"/>
<path class="st1" d="M96,384h328c13.3,0,24-10.7,24-24V32c0-17.7-14.3-32-32-32H96C43,0,0,43,0,96v320c0,53,43,96,96,96h328
	c13.3,0,24-10.7,24-24v-16c0-13.3-10.7-24-24-24H96c-19.2,0-32-12.8-32-32S80,384,96,384z M272,160l26.7,53.3L352,240l-53.3,26.7
	L272,320l-26.7-53.3L192,240l53.3-26.7L272,160z M160,96l16-32l16,32l32,16l-32,16l-16,32l-16-32l-32-16L160,96z"/>
</svg>
