<?xml version="1.0" encoding="utf-8"?>
<!-- Generator: Adobe Illustrator 23.0.1, SVG Export Plug-In . SVG Version: 6.00 Build 0)  -->
<svg version="1.1" id="Layer_1" xmlns="http://www.w3.org/2000/svg" xmlns:xlink="http://www.w3.org/1999/xlink" x="0px" y="0px"
	 viewBox="0 0 512 512" style="enable-background:new 0 0 512 512;" xml:space="preserve">
<style type="text/css">
	.st0{fill:#177596;enable-background:new    ;}
	.st1{opacity:0.4;fill:#409DC6;}
</style>
<path class="st0" d="M220,116c0-6.6,5.4-12,12-12h48c6.6,0,12,5.4,12,12v137.7l63.5,46.2c5.4,3.9,6.5,11.4,2.6,16.8c0,0,0,0,0,0
	l-28.2,38.8c-3.9,5.3-11.4,6.5-16.8,2.6L224.9,294c-3.1-2.3-4.9-5.9-4.9-9.7V116z"/>
<path class="st1" d="M256,8C119,8,8,119,8,256s111,248,248,248s248-111,248-248S393,8,256,8z M358.1,316.7l-28.2,38.8
	c-3.9,5.3-11.4,6.5-16.8,2.6L224.9,294c-3.1-2.3-4.9-5.9-4.9-9.7V116c0-6.6,5.4-12,12-12h48c6.6,0,12,5.4,12,12v137.7l63.5,46.2
	C360.9,303.8,362,311.3,358.1,316.7C358.1,316.7,358.1,316.7,358.1,316.7L358.1,316.7z"/>
</svg>
