<?xml version="1.0" encoding="utf-8"?>
<!-- Generator: Adobe Illustrator 23.0.1, SVG Export Plug-In . SVG Version: 6.00 Build 0)  -->
<svg version="1.1" id="Layer_1" xmlns="http://www.w3.org/2000/svg" xmlns:xlink="http://www.w3.org/1999/xlink" x="0px" y="0px"
	 viewBox="0 0 576 512" style="enable-background:new 0 0 576 512;" xml:space="preserve">
<style type="text/css">
	.st0{opacity:0.4;fill:#409DC6;enable-background:new    ;}
	.st1{fill:#177596;}
</style>
<path class="st0" d="M100.7,192H0l218.7,255c1,1.3,2.9,1.6,4.2,0.6c1.2-0.9,1.6-2.6,0.8-3.9L100.7,192z M475.3,192l-123,251.7
	c-0.7,1.5,0,3.3,1.5,4c1.2,0.5,2.6,0.2,3.5-0.8L576,192H475.3z M148.2,192l137.1,318.2c0.7,1.5,2.4,2.2,3.9,1.6
	c0.7-0.3,1.2-0.9,1.6-1.6l137-318.2H148.2z"/>
<path class="st1" d="M90.5,0L0,160h101.1L170.3,0H90.5z M485.5,0h-79.8l69.2,160H576L485.5,0z M218.5,0l-69.2,160h277.4L357.5,0
	H218.5z"/>
</svg>
