<?xml version="1.0" encoding="utf-8"?>
<!-- Generator: Adobe Illustrator 23.0.1, SVG Export Plug-In . SVG Version: 6.00 Build 0)  -->
<svg version="1.1" id="logoipsum" xmlns="http://www.w3.org/2000/svg" xmlns:xlink="http://www.w3.org/1999/xlink" x="0px" y="0px"
	 viewBox="0 0 177.8 100" style="enable-background:new 0 0 177.8 100;" xml:space="preserve">
<style type="text/css">
	.st0{fill:#5FA6D6;}
</style>
<title>logoipsum-4</title>
<g>
	<circle class="st0" cx="172.7" cy="57.9" r="4.9"/>
	<circle class="st0" cx="74" cy="26.9" r="22.8"/>
	<circle class="st0" cx="125" cy="26.9" r="22.8"/>
	<rect x="0.2" y="4.1" class="st0" width="45.6" height="45.6"/>
	<g>
		<path class="st0" d="M23.5,75c0,8.2-3.8,12.3-11.5,12.3c-7.4,0-11.2-4-11.2-12.1V59.5H7v15.9c0,4.4,1.7,6.6,5.2,6.6
			c3.4,0,5.1-2.1,5.1-6.4V59.5h6.2V75z"/>
		<path class="st0" d="M35,84.6L35,84.6l-0.1,11.3h-6V67.3h6v2.9H35c1.5-2.3,3.6-3.4,6.3-3.4c2.5,0,4.5,0.9,5.9,2.6
			c1.4,1.7,2.1,4.1,2.1,7.1c0,3.3-0.8,5.9-2.4,7.9c-1.6,2-3.8,3-6.4,3C38,87.4,36.2,86.5,35,84.6z M34.8,76.6v1.6
			c0,1.4,0.4,2.5,1.1,3.3c0.7,0.9,1.6,1.3,2.8,1.3c1.4,0,2.4-0.5,3.2-1.6c0.8-1.1,1.1-2.6,1.1-4.5c0-3.4-1.3-5.2-4-5.2
			c-1.2,0-2.2,0.5-3,1.4C35.2,73.8,34.8,75.1,34.8,76.6z"/>
		<path class="st0" d="M52.5,85.9v-6.1c1.1,0.9,2.3,1.6,3.6,2.1c1.3,0.5,2.6,0.7,3.9,0.7c0.8,0,1.5-0.1,2-0.2
			c0.6-0.1,1.1-0.3,1.5-0.6c0.4-0.3,0.7-0.5,0.9-0.9c0.2-0.3,0.3-0.7,0.3-1.1c0-0.5-0.2-1-0.5-1.4c-0.3-0.4-0.7-0.8-1.3-1.2
			s-1.2-0.7-1.9-1c-0.7-0.3-1.5-0.7-2.4-1c-2.1-0.9-3.7-2-4.8-3.3c-1.1-1.3-1.6-2.8-1.6-4.7c0-1.4,0.3-2.7,0.9-3.7
			c0.6-1,1.4-1.9,2.3-2.5c1-0.7,2.1-1.1,3.4-1.5c1.3-0.3,2.7-0.5,4.1-0.5c1.4,0,2.7,0.1,3.8,0.3c1.1,0.2,2.1,0.4,3,0.8v5.7
			c-0.5-0.3-1-0.6-1.5-0.8s-1.1-0.4-1.7-0.6c-0.6-0.2-1.1-0.3-1.7-0.4c-0.6-0.1-1.1-0.1-1.6-0.1c-0.7,0-1.3,0.1-1.9,0.2
			c-0.6,0.1-1.1,0.3-1.5,0.6c-0.4,0.2-0.7,0.5-0.9,0.9c-0.2,0.3-0.3,0.7-0.3,1.1c0,0.5,0.1,0.9,0.4,1.2c0.2,0.4,0.6,0.7,1,1
			c0.4,0.3,1,0.6,1.6,1c0.6,0.3,1.4,0.6,2.2,1c1.1,0.5,2.1,0.9,3,1.5c0.9,0.5,1.6,1.1,2.2,1.7c0.6,0.6,1.1,1.4,1.4,2.2
			c0.3,0.8,0.5,1.8,0.5,2.9c0,1.5-0.3,2.8-0.9,3.8c-0.6,1-1.4,1.9-2.4,2.5c-1,0.6-2.1,1.1-3.5,1.4c-1.3,0.3-2.7,0.4-4.2,0.4
			c-1.5,0-2.9-0.1-4.3-0.4C54.6,86.8,53.5,86.4,52.5,85.9z"/>
		<path class="st0" d="M81.2,84.6L81.2,84.6l-0.1,11.3h-6V67.3h6v2.9h0.1c1.5-2.3,3.6-3.4,6.3-3.4c2.5,0,4.5,0.9,5.9,2.6
			c1.4,1.7,2.1,4.1,2.1,7.1c0,3.3-0.8,5.9-2.4,7.9s-3.8,3-6.4,3C84.2,87.4,82.4,86.5,81.2,84.6z M81,76.6v1.6c0,1.4,0.4,2.5,1.1,3.3
			c0.7,0.9,1.6,1.3,2.8,1.3c1.4,0,2.4-0.5,3.2-1.6c0.8-1.1,1.1-2.6,1.1-4.5c0-3.4-1.3-5.2-4-5.2c-1.2,0-2.2,0.5-3,1.4
			C81.4,73.8,81,75.1,81,76.6z"/>
		<path class="st0" d="M108.7,87.4c-3.3,0-5.8-0.9-7.7-2.7c-1.9-1.8-2.8-4.3-2.8-7.4c0-3.2,1-5.8,2.9-7.6c1.9-1.8,4.6-2.7,7.9-2.7
			c3.2,0,5.8,0.9,7.6,2.7c1.8,1.8,2.8,4.2,2.8,7.3c0,3.2-1,5.8-2.9,7.7C114.6,86.4,112,87.4,108.7,87.4z M108.8,71.5
			c-1.4,0-2.5,0.5-3.3,1.5c-0.8,1-1.2,2.4-1.2,4.2c0,3.8,1.5,5.6,4.5,5.6c2.9,0,4.3-1.9,4.3-5.8C113.2,73.3,111.7,71.5,108.8,71.5z"
			/>
		<path class="st0" d="M136,72.8c-0.7-0.4-1.6-0.6-2.5-0.6c-1.3,0-2.3,0.5-3.1,1.4s-1.1,2.3-1.1,3.9v9.3h-6V67.3h6V71h0.1
			c1-2.6,2.7-4,5.2-4c0.6,0,1.1,0.1,1.5,0.2V72.8z"/>
		<path class="st0" d="M150.7,86.7c-0.9,0.5-2.2,0.7-4,0.7c-4.3,0-6.4-2.2-6.4-6.6v-9h-3.2v-4.5h3.2v-4.2l6-1.7v5.9h4.4v4.5h-4.4
			v7.9c0,2,0.8,3.1,2.4,3.1c0.6,0,1.3-0.2,2-0.6V86.7z"/>
		<path class="st0" d="M152.8,86.4v-4.9c1,0.6,2,1,3,1.3c1,0.3,1.9,0.4,2.8,0.4c1.1,0,1.9-0.1,2.5-0.4c0.6-0.3,0.9-0.7,0.9-1.3
			c0-0.4-0.1-0.7-0.4-1c-0.3-0.3-0.6-0.5-1.1-0.7c-0.4-0.2-0.9-0.4-1.4-0.5c-0.5-0.2-1-0.3-1.5-0.5c-0.8-0.3-1.5-0.6-2.1-0.9
			c-0.6-0.3-1.1-0.7-1.5-1.2c-0.4-0.4-0.7-1-0.9-1.5c-0.2-0.6-0.3-1.3-0.3-2.1c0-1.1,0.2-2,0.7-2.8c0.5-0.8,1.1-1.4,1.9-1.9
			c0.8-0.5,1.7-0.9,2.7-1.1s2.1-0.4,3.2-0.4c0.9,0,1.7,0.1,2.6,0.2c0.9,0.1,1.8,0.3,2.6,0.6v4.7c-0.8-0.4-1.6-0.8-2.5-1
			c-0.9-0.2-1.7-0.3-2.6-0.3c-0.4,0-0.8,0-1.1,0.1c-0.4,0.1-0.7,0.2-0.9,0.3c-0.3,0.1-0.5,0.3-0.6,0.5c-0.2,0.2-0.2,0.5-0.2,0.7
			c0,0.4,0.1,0.7,0.3,0.9s0.5,0.5,0.9,0.7c0.4,0.2,0.8,0.4,1.2,0.5c0.5,0.1,0.9,0.3,1.3,0.5c0.8,0.3,1.5,0.6,2.2,0.9
			c0.6,0.3,1.2,0.7,1.7,1.2c0.5,0.4,0.8,1,1.1,1.6c0.3,0.6,0.4,1.3,0.4,2.1c0,1.2-0.3,2.2-0.8,3c-0.5,0.8-1.2,1.5-2,2
			c-0.8,0.5-1.8,0.9-2.9,1.1c-1.1,0.2-2.2,0.4-3.4,0.4C156.6,87.4,154.6,87.1,152.8,86.4z"/>
	</g>
</g>
</svg>
