<svg xmlns="http://www.w3.org/2000/svg" viewBox="0 0 569.35 440.66"><defs><style>.cls-1{isolation:isolate;}.cls-2{fill:#e1e1e1;}.cls-14,.cls-2,.cls-20,.cls-30,.cls-34,.cls-35,.cls-4,.cls-8{mix-blend-mode:multiply;}.cls-3{fill:#f2ae75;}.cls-14,.cls-25,.cls-4{fill:#f7cdb9;}.cls-5{fill:#6c9933;}.cls-6{fill:#383643;}.cls-7{fill:#a7a9ac;}.cls-8{fill:#969696;opacity:0.5;}.cls-20,.cls-9{fill:#e6e7e8;}.cls-10{fill:#ffce67;}.cls-11,.cls-16{fill:#fff;}.cls-11{opacity:0.4;}.cls-12{fill:#efb333;}.cls-13{fill:#fcb87f;}.cls-14,.cls-35{opacity:0.8;}.cls-15{fill:#3c2417;}.cls-17{fill:#f05d44;}.cls-18{fill:#4f3c30;}.cls-19{fill:#fafafa;}.cls-21{fill:#bf8858;}.cls-22{fill:#0071bc;}.cls-23{fill:#b07949;}.cls-24{fill:#3c2415;}.cls-26{fill:#2a2932;}.cls-27{fill:#f08301;}.cls-28,.cls-34{fill:#c8c8c8;}.cls-29{fill:#231f20;}.cls-30,.cls-35{fill:#f6ccb8;}.cls-31{fill:#f15d44;}.cls-32{fill:#32303a;}.cls-33{fill:#4f4c4d;}.cls-36{fill:#43414d;}</style></defs><title>men</title><g class="cls-1"><g id="Layer_1" data-name="Layer 1"><g id="man"><ellipse class="cls-2" cx="67.56" cy="426.82" rx="40.54" ry="10.14"/><polygon class="cls-3" points="80.33 145.68 77.29 144.28 77.29 134.65 57.83 134.65 57.83 144.28 54.79 145.6 55.6 172.93 57.83 172.93 57.83 177.13 77.29 177.13 77.29 172.93 79.52 172.93 80.33 145.68"/><polygon class="cls-4" points="77.29 135.63 77.29 144.28 57.83 139.38 57.83 135.63 77.29 135.63"/><path class="cls-3" d="M194.33,418.64S191.73,443,190.07,458c1,13.79-3.5,84.7-3.5,84.7H173.33s-6.65-62-2.75-84.69c-2.28-17.07-2.48-39.33-2.48-39.33Z" transform="translate(-129.94 -138.86)"/><path class="cls-5" d="M190.22,462.79c.11,20.79-3.65,79.87-3.65,79.87H173.33s-5.83-54.3-3.37-79.87Z" transform="translate(-129.94 -138.86)"/><path class="cls-6" d="M180.9,568.14h2a.85.85,0,0,0,.85-.85l.85-3.55a.85.85,0,0,0-.85-.85H180.9a.85.85,0,0,0-.85.85v3.55A.85.85,0,0,0,180.9,568.14Z" transform="translate(-129.94 -138.86)"/><path class="cls-6" d="M175.17,568.14h-2a.85.85,0,0,1-.85-.85l-.85-3.55a.85.85,0,0,1,.85-.85h2.82a.86.86,0,0,1,.85.85v3.55A.86.86,0,0,1,175.17,568.14Z" transform="translate(-129.94 -138.86)"/><path class="cls-7" d="M183.53,565.11a6.79,6.79,0,0,1-.89.46,12.91,12.91,0,0,1-5.25.94,13.92,13.92,0,0,1-4.46-.62,7.52,7.52,0,0,1-1-.38c-6.88-3.35-.91-14.11-1-17-.21-5.33-.88-8.83,2.89-9.7a6.31,6.31,0,0,1,.8-.15s0,0,0-.06c-.44-3.17.24-3.17,3.65-3.17,4.92,0,5.58,1.05,5.57,3.59h0a6.08,6.08,0,0,1,.79.24c3.06,1.15,3.43,4.38,3.43,9.25C188.08,554.77,188.67,562.12,183.53,565.11Z" transform="translate(-129.94 -138.86)"/><path class="cls-8" d="M174.15,553.77c0,.31-.24.62-.55,1-.95,1.17-2.9,3.58-.67,11.12a7.52,7.52,0,0,1-1-.38c-2.07-7.47,0-10,1-11.25a2.36,2.36,0,0,0,.38-.55,69,69,0,0,0,.49-14.93,6.31,6.31,0,0,1,.8-.15A68.64,68.64,0,0,1,174.15,553.77Z" transform="translate(-129.94 -138.86)"/><path class="cls-8" d="M183.54,555.66a28,28,0,0,1,0,9.45,6.79,6.79,0,0,1-.89.46,27.41,27.41,0,0,0,.1-9.77,6.38,6.38,0,0,1-.14-1.32A96.49,96.49,0,0,1,183.86,539a6.08,6.08,0,0,1,.79.24,96.43,96.43,0,0,0-1.24,15.29A5.22,5.22,0,0,0,183.54,555.66Z" transform="translate(-129.94 -138.86)"/><path class="cls-9" d="M172.33,548.15a.53.53,0,0,1-.47-.28.53.53,0,0,1,.21-.71c4.16-2.27,12.21-2.07,12.55-2.06a.53.53,0,0,1,0,1h0c-.08,0-8.11-.2-12,1.93A.47.47,0,0,1,172.33,548.15Z" transform="translate(-129.94 -138.86)"/><path class="cls-9" d="M184.61,551a.58.58,0,0,1-.26-.06c-2.18-1.19-12-2.73-12.11-2.75a.53.53,0,0,1-.44-.6.54.54,0,0,1,.61-.44c.41.06,10.1,1.59,12.45,2.86a.54.54,0,0,1,.21.72A.54.54,0,0,1,184.61,551Z" transform="translate(-129.94 -138.86)"/><path class="cls-9" d="M184.34,554.24l-.13,0a34.07,34.07,0,0,0-5.9-.72,19.72,19.72,0,0,0-6.1.36.52.52,0,0,1-.63-.29.54.54,0,0,1,.2-.67,19.64,19.64,0,0,1,4.05-1.67,35.1,35.1,0,0,0-3.57-.64.53.53,0,0,1-.46-.58.53.53,0,0,1,.59-.46,39.49,39.49,0,0,1,5.56,1.12,28.73,28.73,0,0,1,3-.49.88.88,0,0,1,.51-.17v0h.16c.54,0,1.44-.06,3-.09h0a.52.52,0,0,1,.52.52v.09a.52.52,0,0,1-.52.53h-.71a30.41,30.41,0,0,0-3.77.31,29.84,29.84,0,0,1,4.47,1.9.52.52,0,0,1,.23.65A.53.53,0,0,1,184.34,554.24Zm-7.85-1.85c.57,0,1.19,0,1.87.05s1.47.09,2.1.15c-.75-.27-1.6-.55-2.54-.82a21.63,21.63,0,0,0-2.29.64Z" transform="translate(-129.94 -138.86)"/><path class="cls-9" d="M172.33,550.6a.52.52,0,0,1-.46-.26.53.53,0,0,1,.19-.72c2.88-1.71,12.13-2.1,12.52-2.12a.56.56,0,0,1,.55.51.52.52,0,0,1-.5.54c-.1,0-9.38.41-12,2A.48.48,0,0,1,172.33,550.6Z" transform="translate(-129.94 -138.86)"/><path class="cls-9" d="M184.61,548.55a.51.51,0,0,1-.38-.16c-1.52-1.55-9.13-2.31-11.94-2.47a.53.53,0,0,1-.49-.56.54.54,0,0,1,.55-.5c1.08.07,10.55.67,12.63,2.8a.51.51,0,0,1,0,.74A.51.51,0,0,1,184.61,548.55Z" transform="translate(-129.94 -138.86)"/><path class="cls-3" d="M200.67,418.64s2.6,24.35,4.25,39.32c-1,13.79,3.51,84.7,3.51,84.7h13.24s6.65-62,2.75-84.69c2.28-17.07,2.48-39.33,2.48-39.33Z" transform="translate(-129.94 -138.86)"/><path class="cls-5" d="M204.78,462.79c-.11,20.79,3.65,79.87,3.65,79.87h13.24s5.82-54.3,3.37-79.87Z" transform="translate(-129.94 -138.86)"/><path class="cls-6" d="M214.09,568.14h-2a.85.85,0,0,1-.85-.85l-.85-3.55a.85.85,0,0,1,.85-.85h2.81a.85.85,0,0,1,.85.85v3.55A.85.85,0,0,1,214.09,568.14Z" transform="translate(-129.94 -138.86)"/><path class="cls-6" d="M219.83,568.14h2a.85.85,0,0,0,.85-.85l.85-3.55a.85.85,0,0,0-.85-.85h-2.82a.85.85,0,0,0-.85.85v3.55A.85.85,0,0,0,219.83,568.14Z" transform="translate(-129.94 -138.86)"/><path class="cls-7" d="M211.47,565.11a6.79,6.79,0,0,0,.89.46,12.91,12.91,0,0,0,5.25.94,14,14,0,0,0,4.46-.62,8.18,8.18,0,0,0,1-.38c6.88-3.35.91-14.11,1-17,.21-5.33.88-8.83-2.89-9.7a6.31,6.31,0,0,0-.8-.15v-.06c.45-3.17-.23-3.17-3.64-3.17-4.93,0-5.58,1.05-5.57,3.59h0a5.26,5.26,0,0,0-.79.24c-3.06,1.15-3.43,4.38-3.43,9.25C206.92,554.77,206.33,562.12,211.47,565.11Z" transform="translate(-129.94 -138.86)"/><path class="cls-8" d="M220.84,553.77c0,.31.25.62.55,1,1,1.17,2.91,3.58.68,11.12a8.18,8.18,0,0,0,1-.38c2.07-7.47,0-10-1-11.25a1.86,1.86,0,0,1-.38-.55,69,69,0,0,1-.49-14.93,6.31,6.31,0,0,0-.8-.15A69,69,0,0,0,220.84,553.77Z" transform="translate(-129.94 -138.86)"/><path class="cls-8" d="M211.46,555.66a27.47,27.47,0,0,0,0,9.45,6.79,6.79,0,0,0,.89.46,27.41,27.41,0,0,1-.1-9.77,6.22,6.22,0,0,0,.13-1.32A97.05,97.05,0,0,0,211.14,539a5.26,5.26,0,0,0-.79.24,95.66,95.66,0,0,1,1.23,15.29A5.07,5.07,0,0,1,211.46,555.66Z" transform="translate(-129.94 -138.86)"/><path class="cls-9" d="M222.67,548.15a.47.47,0,0,1-.25-.07c-3.91-2.13-11.93-1.93-12-1.93h0a.53.53,0,1,1,0-1c.33,0,8.39-.21,12.54,2.06a.52.52,0,0,1,.21.71A.51.51,0,0,1,222.67,548.15Z" transform="translate(-129.94 -138.86)"/><path class="cls-9" d="M210.39,551a.52.52,0,0,1-.46-.27.53.53,0,0,1,.21-.72c2.35-1.27,12-2.8,12.45-2.86a.52.52,0,0,1,.6.44.52.52,0,0,1-.44.6c-.1,0-9.92,1.56-12.11,2.75A.54.54,0,0,1,210.39,551Z" transform="translate(-129.94 -138.86)"/><path class="cls-9" d="M210.66,554.24a.53.53,0,0,1-.49-.34.52.52,0,0,1,.23-.65,29.41,29.41,0,0,1,4.46-1.9,30.41,30.41,0,0,0-3.76-.31h-.71a.53.53,0,0,1-.53-.53.06.06,0,0,1,0,0,.11.11,0,0,1,0-.05.53.53,0,0,1,.53-.52h0c1.54,0,2.44.05,3,.09h.17v0c.29,0,.44.09.51.17a28.5,28.5,0,0,1,3,.49,39.49,39.49,0,0,1,5.56-1.12.52.52,0,0,1,.13,1,35.1,35.1,0,0,0-3.57.64,19.08,19.08,0,0,1,4,1.67.53.53,0,0,1-.43,1,19.56,19.56,0,0,0-6.09-.36,34.07,34.07,0,0,0-5.9.72Zm6.41-2.47c-.94.27-1.79.55-2.53.82q.94-.09,2.1-.15c1-.05,1.94-.06,2.72,0C218.69,552.18,217.92,552,217.07,551.77Z" transform="translate(-129.94 -138.86)"/><path class="cls-9" d="M222.67,550.6a.54.54,0,0,1-.27-.07c-2.65-1.57-11.94-2-12-2a.53.53,0,0,1-.51-.54.52.52,0,0,1,.55-.51c.39,0,9.65.41,12.53,2.12a.53.53,0,0,1-.27,1Z" transform="translate(-129.94 -138.86)"/><path class="cls-9" d="M210.39,548.55a.53.53,0,0,1-.37-.15.52.52,0,0,1,0-.74c2.09-2.13,11.56-2.73,12.63-2.8a.55.55,0,0,1,.56.5.53.53,0,0,1-.5.56c-2.8.16-10.41.92-11.93,2.47A.52.52,0,0,1,210.39,548.55Z" transform="translate(-129.94 -138.86)"/><path class="cls-9" d="M226.75,381.29H168.24c-3.12,38.57-2.72,49.62-1.74,58.43h29.8l1.2-30.17,1.2,30.17h29.8C229.48,430.91,229.87,419.86,226.75,381.29Z" transform="translate(-129.94 -138.86)"/><path class="cls-3" d="M228.5,282.56a282,282,0,0,0,20.8-32.45c3-5.39,8.66-34.7,9.47-49.45a6.68,6.68,0,0,1,7.05-6.31c3.69.21,6.1,2.52,5.9,6.21-.9,16.15-6,47.14-9.33,54.86-5.22,11.92-8.39,20.4-19.89,38.35Z" transform="translate(-129.94 -138.86)"/><path class="cls-3" d="M263.12,212.41a2.24,2.24,0,0,1-1.46-.55c-2.07-1.8-5.52-5.49-5.29-10a2.23,2.23,0,1,1,4.46.24c-.14,2.74,2.58,5.4,3.75,6.42a2.23,2.23,0,0,1-1.46,3.92Z" transform="translate(-129.94 -138.86)"/><path class="cls-5" d="M233.49,277c-3.61-4.33-6.55,12.88-23.66,7.29,0,0,.72,13.68-12.33,13.68v-.07c-13.06,0-12.33-13.68-12.33-13.68-23.56,8.47-26.21,5.65-41.28,28.56,5.79,6.95,14.21,10.74,18.11,10.67,1,0,3.24-3.32,3.24-3.32s2.62,24.55,3,44.65c0,0-1.87,25.71-1.49,25.71H197.5v.08h30.78c.94,0,1.48-75.23,1.48-75.23s9.43-13.78,16.73-22.54C246.17,289.86,233.49,277,233.49,277Z" transform="translate(-129.94 -138.86)"/><path class="cls-9" d="M184.44,298.46c3.16,3.33,7.55,5,13.06,5s9.9-1.69,13.05-5c3.7-3.89,4.84-9.49,5.08-13.07a19.94,19.94,0,0,1-2.83-.34c-.18,2.65-.93,7.91-4.32,11.47-2.6,2.73-6.29,4.12-11,4.12s-8.39-1.39-11-4.12c-3.38-3.55-4.18-8.61-4.36-11.26h0l-2.72.94h0C179.67,289.39,180.75,294.57,184.44,298.46Z" transform="translate(-129.94 -138.86)"/><path class="cls-3" d="M170.64,359.57a14.56,14.56,0,0,0-10-2.74,2.11,2.11,0,0,0-1.45,2.46,1.82,1.82,0,0,0,2.34,1.33,6.55,6.55,0,0,1,.67,0,13.05,13.05,0,0,1,1.61.22,11,11,0,0,1,4.4,1.93,2,2,0,0,0,2.45-3.22Z" transform="translate(-129.94 -138.86)"/><path class="cls-3" d="M131.87,340.35l22.07,22.94,9.62,10.58c1.69,1.29,2.8,1.43,4,.59a9.61,9.61,0,0,0,1.83-2c2-2.66,4.08-6.38,1.58-8.29l-1-1.16L168.12,361l-3.51-4-17.8-20.35,12.83-13.51c-4.16-1-10.41-4.32-15.16-9.68l-13,17.45A7.32,7.32,0,0,0,131.87,340.35Z" transform="translate(-129.94 -138.86)"/><g id="throphy"><path class="cls-10" d="M252.68,164l3.94-22.31a.8.8,0,0,1,.93-.65l38,6.7a.8.8,0,0,1,.65.93L292.3,171a20.12,20.12,0,0,1-39.62-7Z" transform="translate(-129.94 -138.86)"/><rect class="cls-10" x="246.27" y="195.95" width="41.26" height="6.44" transform="matrix(0.17, -0.98, 0.98, 0.17, -105.53, 288.58)"/><path class="cls-10" d="M274.13,230.79l-24.83-4.38a.77.77,0,0,1-.63-.92A13.41,13.41,0,0,1,275,230.14.76.76,0,0,1,274.13,230.79Z" transform="translate(-129.94 -138.86)"/><path class="cls-10" d="M252.2,174.27c-7.56-1.34-19.11-14.9-17.17-25.9A11.51,11.51,0,0,1,248.35,139a9.53,9.53,0,0,1,7.72,11,7.94,7.94,0,0,1-9.19,6.44,6.68,6.68,0,0,1-5.41-7.73l.13-.79c.08-.44.85-.67,1.73-.52h0c.87.16,1.52.64,1.44,1.07l-.14.8a3.46,3.46,0,0,0,2.81,4,4.72,4.72,0,0,0,5.46-3.83,6.3,6.3,0,0,0-5.11-7.3,8.29,8.29,0,0,0-9.59,6.71c-1.67,9.47,8.93,21.19,14.56,22.18l1.58.28-.56,3.17Z" transform="translate(-129.94 -138.86)"/><path class="cls-10" d="M287.66,180.52l.56-3.17,1.58.28c5.63,1,19.6-6.39,21.27-15.86a8.29,8.29,0,0,0-6.72-9.59,6.31,6.31,0,0,0-7.3,5.11,4.72,4.72,0,0,0,3.83,5.47,3.46,3.46,0,0,0,4-2.8s.06-.36.14-.79.85-.67,1.72-.52h0c.88.16,1.52.64,1.45,1.08l-.14.79a6.68,6.68,0,0,1-7.73,5.41,8,8,0,0,1-6.44-9.2,9.53,9.53,0,0,1,11-7.72,11.5,11.5,0,0,1,9.32,13.32c-1.94,11-17.43,19.8-25,18.47Z" transform="translate(-129.94 -138.86)"/><path class="cls-11" d="M288.83,146.55,257.55,141a.8.8,0,0,0-.93.65L252.68,164a20,20,0,0,0,3.23,14.87A50.24,50.24,0,0,0,288.83,146.55Z" transform="translate(-129.94 -138.86)"/><path class="cls-12" d="M284.58,160.63l-7.37-2.35-2.23-7.4-4.51,6.28-7.73-.16.06.07,4.51,6.16-2.54,7.3.06,0,7.28-2.41,6.11,4.64,0,0,0-7.72,6.27-4.36Z" transform="translate(-129.94 -138.86)"/></g><path class="cls-13" d="M270.63,207.68c-2.84,2.21-8.85-.41-8.85-.41-3.95-1.48-4.33-5.78-2.87-9.71s4.24-6,8.19-4.53l2.84,1.06C272.58,197.82,271.81,204.23,270.63,207.68Z" transform="translate(-129.94 -138.86)"/><path class="cls-3" d="M218.73,246.07l.66-8.56c0-11.2-10.7-20.27-21.89-20.27s-21.89,9.07-21.89,20.27l.66,8.55a4,4,0,0,0-1.67.85,4,4,0,0,0-1.42,3.09v4.21a4,4,0,0,0,4,4c0,10.58,12.71,20.6,20.3,20.6s20.3-10,20.3-20.6a4,4,0,0,0,4-4V250A4.05,4.05,0,0,0,218.73,246.07Z" transform="translate(-129.94 -138.86)"/><path class="cls-14" d="M218.73,246.07l.66-8.56c0-11.2-10.7-20.27-21.89-20.27V246c-3,6.29-4.87,15.41-4.87,15.41h4.87v17.43c7.59,0,20.3-10,20.3-20.6a4,4,0,0,0,4-4V250A4.05,4.05,0,0,0,218.73,246.07Z" transform="translate(-129.94 -138.86)"/><path class="cls-4" d="M191.37,248.36a3.2,3.2,0,1,1-3.31-3.09A3.2,3.2,0,0,1,191.37,248.36Z" transform="translate(-129.94 -138.86)"/><path class="cls-15" d="M191.37,247.55a3.2,3.2,0,1,1-3.31-3.09A3.2,3.2,0,0,1,191.37,247.55Z" transform="translate(-129.94 -138.86)"/><path class="cls-16" d="M190.06,246.63a.8.8,0,1,1-.83-.77A.81.81,0,0,1,190.06,246.63Z" transform="translate(-129.94 -138.86)"/><path class="cls-4" d="M210,248.36a3.2,3.2,0,1,1-3.31-3.09A3.2,3.2,0,0,1,210,248.36Z" transform="translate(-129.94 -138.86)"/><path class="cls-15" d="M210,247.55a3.2,3.2,0,1,1-3.31-3.09A3.2,3.2,0,0,1,210,247.55Z" transform="translate(-129.94 -138.86)"/><path class="cls-16" d="M208.71,246.63a.8.8,0,0,1-.77.83.79.79,0,0,1-.83-.77.8.8,0,0,1,1.6-.06Z" transform="translate(-129.94 -138.86)"/><path class="cls-17" d="M206,264.44c0,4.18-2.87,9.46-8.51,9.46s-8.51-5.28-8.51-9.46Z" transform="translate(-129.94 -138.86)"/><path class="cls-16" d="M60.37,125.57H74.56a0,0,0,0,1,0,0v1.84a1,1,0,0,1-1,1H61.37a1,1,0,0,1-1-1v-1.84a0,0,0,0,1,0,0Z"/><path class="cls-18" d="M219.08,224.3c.23-2.71-.64-6.56-2.77-12.06a1.78,1.78,0,0,0-3.07-.44c-2.47,3.1-5.74,2.48-11.11.29-9-3.66-15.57-1.43-19.37,2.55-16.29,8.31-6.33,37.45-6.33,37.45s.34-15.17,5.93-22.14a103.36,103.36,0,0,0,15.14,1.89A105.68,105.68,0,0,0,213.12,230c4.14,4.43,5.46,22.14,5.46,22.14S225,235.94,219.08,224.3Z" transform="translate(-129.94 -138.86)"/></g><g id="man-2" data-name="man"><ellipse class="cls-2" cx="225.62" cy="428.5" rx="52.7" ry="12.16"/><g id="ball"><path class="cls-19" d="M359.62,546.71c0,.1,0,.21,0,.31h0A26.13,26.13,0,0,1,354.76,562a26.4,26.4,0,0,1-13.64,9.92h0a26.52,26.52,0,0,1-15.71,0h0A26.36,26.36,0,0,1,306.92,547h0v-.31a26.35,26.35,0,0,1,52.7,0Z" transform="translate(-129.94 -138.86)"/><path class="cls-7" d="M323.18,568.26a23.85,23.85,0,1,1,31.69-11.53A23.86,23.86,0,0,1,323.18,568.26Zm19.95-42.78a23.36,23.36,0,1,0,11.31,31A23.39,23.39,0,0,0,343.13,525.48Z" transform="translate(-129.94 -138.86)"/><rect class="cls-7" x="333.92" y="533.95" width="10.3" height="0.48" transform="translate(-418.31 476.84) rotate(-65)"/><rect class="cls-7" x="322.96" y="532.13" width="0.48" height="10.3" transform="translate(-420.1 268.37) rotate(-47)"/><rect class="cls-7" x="316.08" y="553.08" width="10.3" height="0.48" transform="translate(-357.78 86.02) rotate(-28.98)"/><rect class="cls-7" x="335.64" y="555" width="0.48" height="10.3" transform="translate(-230.65 -64.48) rotate(-11)"/><rect class="cls-7" x="346.67" y="543.18" width="0.48" height="10.3" transform="translate(-369.63 686.81) rotate(-82.99)"/><polygon class="cls-6" points="194.54 412.66 195.98 400.95 207.56 398.69 213.28 409.02 205.24 417.65 194.54 412.66"/><path class="cls-6" d="M351,531.17l-10.58.09-6.73-8.16,2.47-2.64a26.4,26.4,0,0,1,15.28,7.13Z" transform="translate(-129.94 -138.86)"/><path class="cls-6" d="M320.84,535.07,311,539l-1.75-3.15h0a2.36,2.36,0,0,1,.12-.28,26.2,26.2,0,0,1,11.38-12.06L324,525Z" transform="translate(-129.94 -138.86)"/><path class="cls-6" d="M319.05,565.45l-3.54.69h0a26.39,26.39,0,0,1-8.17-14.75l2.46-2.64,8.6,6.15Z" transform="translate(-129.94 -138.86)"/><path class="cls-6" d="M346.31,569.55a26.47,26.47,0,0,1-16.56,3.23h0L328,569.62l8.51-6.29L346.75,566Z" transform="translate(-129.94 -138.86)"/><path class="cls-6" d="M357.15,557.79l-.14.28h0l-3.53.69-3.35-10,5.68-8.92,3.26,1.52A26.28,26.28,0,0,1,357.15,557.79Z" transform="translate(-129.94 -138.86)"/><path class="cls-20" d="M354.4,531a26.3,26.3,0,0,0-21.13-10.61q-.9,0-1.77.06a22.91,22.91,0,0,1,21.24,22.85v.27h0a22.94,22.94,0,0,1-16.08,21.61h0a22.95,22.95,0,0,1-13.66,0h0a22.94,22.94,0,0,1-16-20.23c0,.59-.06,1.19-.06,1.79V547h0a26.36,26.36,0,0,0,18.49,24.85h0a26.52,26.52,0,0,0,15.71,0h0A26.4,26.4,0,0,0,354.76,562,26.13,26.13,0,0,0,359.61,547h0c0-.1,0-.21,0-.31A26.21,26.21,0,0,0,354.4,531Z" transform="translate(-129.94 -138.86)"/><path class="cls-20" d="M354.4,531a26.3,26.3,0,0,0-21.13-10.61,25.7,25.7,0,0,0-4.14.33,19.4,19.4,0,0,1,2.52.65,18.74,18.74,0,0,1,12.74,17.76v.21h0A18.74,18.74,0,0,1,331.24,557h0a18.77,18.77,0,0,1-11.17,0h0a18.76,18.76,0,0,1-12.83-14.41,26.9,26.9,0,0,0-.32,4.14V547h0a26.36,26.36,0,0,0,18.49,24.85h0a26.52,26.52,0,0,0,15.71,0h0A26.4,26.4,0,0,0,354.76,562,26.13,26.13,0,0,0,359.61,547h0c0-.1,0-.21,0-.31A26.21,26.21,0,0,0,354.4,531Z" transform="translate(-129.94 -138.86)"/></g><polygon class="cls-21" points="245.35 142.5 242.32 141.1 242.32 131.46 222.86 131.46 222.86 141.1 219.82 142.41 220.63 169.75 222.86 169.75 222.86 173.94 242.32 173.94 242.32 169.75 244.54 169.75 245.35 142.5"/><polygon class="cls-4" points="242.32 132.44 242.32 141.1 222.86 136.19 222.86 132.44 242.32 132.44"/><path class="cls-21" d="M366.83,393.51s-16.83,21.13-25.33,28c1,13.79-4.31,84.7-4.31,84.7H324s-7.46-62-3.56-84.7c-2.28-17.07,20.22-28,20.22-28Z" transform="translate(-129.94 -138.86)"/><path class="cls-9" d="M341.65,426.31c.11,20.78-4.46,79.87-4.46,79.87H324s-6.64-54.3-4.19-79.87Z" transform="translate(-129.94 -138.86)"/><path class="cls-6" d="M331.52,531.66h2a.85.85,0,0,0,.85-.85l.85-3.55a.85.85,0,0,0-.85-.85h-2.82a.85.85,0,0,0-.85.85v3.55A.85.85,0,0,0,331.52,531.66Z" transform="translate(-129.94 -138.86)"/><path class="cls-6" d="M325.78,531.66h-2a.85.85,0,0,1-.85-.85l-.85-3.55a.85.85,0,0,1,.85-.85h2.81a.85.85,0,0,1,.85.85v3.55A.85.85,0,0,1,325.78,531.66Z" transform="translate(-129.94 -138.86)"/><path class="cls-22" d="M334.14,528.63a5.73,5.73,0,0,1-.89.46A13,13,0,0,1,328,530a13.87,13.87,0,0,1-4.46-.62,7.52,7.52,0,0,1-.95-.38c-6.89-3.35-.92-14.12-1-17-.21-5.32-.88-8.83,2.89-9.69a4.73,4.73,0,0,1,.8-.15s0,0,0-.06c-.45-3.17.24-3.17,3.65-3.17,4.92,0,5.58,1.05,5.57,3.59h0a5.5,5.5,0,0,1,.78.23c3.07,1.15,3.43,4.39,3.43,9.25C338.69,518.29,339.29,525.64,334.14,528.63Z" transform="translate(-129.94 -138.86)"/><path class="cls-8" d="M324.77,517.29c0,.31-.24.61-.55,1-1,1.17-2.9,3.58-.67,11.12a7.52,7.52,0,0,1-.95-.38c-2.08-7.48,0-10,1-11.26a2.17,2.17,0,0,0,.38-.55,69.57,69.57,0,0,0,.49-14.92,4.73,4.73,0,0,1,.8-.15A70,70,0,0,1,324.77,517.29Z" transform="translate(-129.94 -138.86)"/><path class="cls-8" d="M334.15,519.18a27.46,27.46,0,0,1,0,9.45,5.73,5.73,0,0,1-.89.46,27.5,27.5,0,0,0,.11-9.77,6.38,6.38,0,0,1-.14-1.32,96.35,96.35,0,0,1,1.26-15.49,5.5,5.5,0,0,1,.78.23A97.23,97.23,0,0,0,334,518,5.84,5.84,0,0,0,334.15,519.18Z" transform="translate(-129.94 -138.86)"/><path class="cls-9" d="M322.94,511.62a.48.48,0,0,1-.23-.91c4.15-2.27,12.19-2.06,12.53-2a.49.49,0,0,1,0,1c-.08,0-8.12-.21-12,1.93A.46.46,0,0,1,322.94,511.62Z" transform="translate(-129.94 -138.86)"/><path class="cls-9" d="M335.22,514.43a.49.49,0,0,1-.23-.06c-2.19-1.19-12-2.74-12.12-2.75a.49.49,0,1,1,.15-1c.41.06,10.09,1.58,12.44,2.86a.49.49,0,0,1-.24.91Z" transform="translate(-129.94 -138.86)"/><path class="cls-9" d="M335,517.71h-.12a33.6,33.6,0,0,0-5.92-.73,19.86,19.86,0,0,0-6.1.37.5.5,0,0,1-.59-.27.48.48,0,0,1,.19-.61,18.91,18.91,0,0,1,4.18-1.72,37,37,0,0,0-3.72-.67.48.48,0,0,1-.42-.54.48.48,0,0,1,.54-.42,38.27,38.27,0,0,1,5.57,1.12c.91-.2,1.92-.37,3-.5a.75.75,0,0,1,.48-.16v0h.16c.52,0,1.42-.06,3-.09a.47.47,0,0,1,.5.47v.1a.5.5,0,0,1-.48.49h-.71a30.87,30.87,0,0,0-3.94.33,30,30,0,0,1,4.61,1.95.48.48,0,0,1,.22.6A.5.5,0,0,1,335,517.71ZM327.11,516c.57,0,1.19,0,1.86,0,.9,0,1.7.11,2.41.18-.82-.31-1.77-.63-2.83-.94-1,.23-1.84.48-2.57.73Z" transform="translate(-129.94 -138.86)"/><path class="cls-9" d="M322.94,514.08a.49.49,0,0,1-.25-.91c2.87-1.7,12.12-2.1,12.51-2.11a.51.51,0,0,1,.51.46.49.49,0,0,1-.47.51c-.09,0-9.39.4-12.05,2A.55.55,0,0,1,322.94,514.08Z" transform="translate(-129.94 -138.86)"/><path class="cls-9" d="M335.22,512a.46.46,0,0,1-.34-.15c-1.54-1.56-9.16-2.33-12-2.49a.48.48,0,0,1-.45-.51.48.48,0,0,1,.51-.46c1.07.06,10.53.67,12.6,2.78a.49.49,0,0,1-.35.83Z" transform="translate(-129.94 -138.86)"/><path class="cls-21" d="M365.7,415.45s2.6,24.35,4.25,39.33c-1,13.78,3.51,84.7,3.51,84.7h13.23s6.66-62,2.76-84.7c2.28-17.07,2.48-39.33,2.48-39.33Z" transform="translate(-129.94 -138.86)"/><path class="cls-9" d="M369.81,459.6c-.11,20.79,3.65,79.88,3.65,79.88h13.23s5.83-54.31,3.38-79.88Z" transform="translate(-129.94 -138.86)"/><path class="cls-6" d="M379.12,565h-2a.85.85,0,0,1-.85-.85l-.85-3.54a.85.85,0,0,1,.85-.85h2.81a.85.85,0,0,1,.85.85v3.54A.85.85,0,0,1,379.12,565Z" transform="translate(-129.94 -138.86)"/><path class="cls-6" d="M384.86,565h2a.85.85,0,0,0,.85-.85l.85-3.54a.85.85,0,0,0-.85-.85h-2.82a.85.85,0,0,0-.85.85v3.54A.85.85,0,0,0,384.86,565Z" transform="translate(-129.94 -138.86)"/><path class="cls-22" d="M376.5,561.93a5.7,5.7,0,0,0,.89.45,12.91,12.91,0,0,0,5.25.94,14.28,14.28,0,0,0,4.46-.61c.34-.12.65-.25.94-.38,6.89-3.35.92-14.12,1-17,.22-5.33.89-8.83-2.88-9.7a6.34,6.34,0,0,0-.8-.14v-.07c.45-3.17-.23-3.17-3.65-3.17-4.92,0-5.57,1.06-5.57,3.59h0a6.75,6.75,0,0,0-.79.24c-3.07,1.15-3.43,4.39-3.43,9.25C372,551.58,371.36,558.94,376.5,561.93Z" transform="translate(-129.94 -138.86)"/><path class="cls-8" d="M385.87,550.58c0,.31.24.62.55,1,1,1.18,2.91,3.59.68,11.13.34-.12.65-.25.94-.38,2.08-7.48,0-10-1-11.26a2,2,0,0,1-.39-.55,69.36,69.36,0,0,1-.48-14.93,6.34,6.34,0,0,0-.8-.14A68.92,68.92,0,0,0,385.87,550.58Z" transform="translate(-129.94 -138.86)"/><path class="cls-8" d="M376.49,552.47a27.53,27.53,0,0,0,0,9.46,5.7,5.7,0,0,0,.89.45,27.42,27.42,0,0,1-.1-9.77,6.2,6.2,0,0,0,.13-1.31,97.24,97.24,0,0,0-1.25-15.5,6.75,6.75,0,0,0-.79.24,95.93,95.93,0,0,1,1.23,15.29A5.07,5.07,0,0,1,376.49,552.47Z" transform="translate(-129.94 -138.86)"/><path class="cls-9" d="M387.7,544.92a.46.46,0,0,1-.23-.06c-3.92-2.14-12-1.93-12-1.93a.52.52,0,0,1-.5-.47.51.51,0,0,1,.48-.51c.34,0,8.38-.21,12.52,2.06a.48.48,0,0,1,.2.66A.5.5,0,0,1,387.7,544.92Z" transform="translate(-129.94 -138.86)"/><path class="cls-9" d="M375.42,547.73a.51.51,0,0,1-.43-.26.49.49,0,0,1,.2-.66c2.34-1.27,12-2.79,12.44-2.86a.48.48,0,0,1,.55.41.48.48,0,0,1-.4.55c-.1,0-9.93,1.56-12.13,2.76A.46.46,0,0,1,375.42,547.73Z" transform="translate(-129.94 -138.86)"/><path class="cls-9" d="M375.69,551a.5.5,0,0,1-.46-.31.49.49,0,0,1,.22-.6,30,30,0,0,1,4.61-2,29,29,0,0,0-3.93-.33h-.71a.49.49,0,0,1-.49-.48.09.09,0,0,1,0-.05.07.07,0,0,1,0,0,.47.47,0,0,1,.5-.48c1.56,0,2.46,0,3,.1h.16v0c.28,0,.42.08.48.16a29,29,0,0,1,3,.5,38.06,38.06,0,0,1,5.56-1.13.49.49,0,0,1,.54.43.48.48,0,0,1-.42.54A37.63,37.63,0,0,0,384,548a19.83,19.83,0,0,1,4.18,1.72.49.49,0,0,1,.19.62.48.48,0,0,1-.58.26,20.18,20.18,0,0,0-6.11-.36,35.86,35.86,0,0,0-5.92.72Zm6.41-2.47c-1.06.31-2,.63-2.84.94.71-.07,1.51-.14,2.41-.18q1.74-.09,3,0A25.87,25.87,0,0,0,382.1,548.54Z" transform="translate(-129.94 -138.86)"/><path class="cls-9" d="M387.7,547.37a.47.47,0,0,1-.25-.07c-2.66-1.57-12-2-12.05-2a.49.49,0,0,1,0-1c.39,0,9.64.42,12.51,2.12a.48.48,0,0,1,.17.66A.47.47,0,0,1,387.7,547.37Z" transform="translate(-129.94 -138.86)"/><path class="cls-9" d="M375.42,545.33a.49.49,0,0,1-.35-.83c2.07-2.12,11.53-2.72,12.6-2.78a.49.49,0,1,1,.06,1c-2.81.16-10.43.92-12,2.49A.49.49,0,0,1,375.42,545.33Z" transform="translate(-129.94 -138.86)"/><path class="cls-9" d="M391.78,378.1H333.27c1.93,13.79-3.79,6.6-9.39,27.11a.81.81,0,0,0,1.13.94c2.64-1.2,9.57-2,21.72,5.25,7.95,4.05,10.93-4.23,10.93-4.23l6.07,29.37h29.8C394.51,427.73,394.9,416.67,391.78,378.1Z" transform="translate(-129.94 -138.86)"/><path class="cls-22" d="M404,296c-3.23-7-11.11-9-29.11-14.89,0,0,.72,13.68-12.33,13.68s-12.33-13.68-12.33-13.68c-18,5.85-25.89,7.87-29.11,14.89-1.42,3.16-6,17.69-4.85,20.58,2.38,6.19,16.46,2.87,16.46,2.87s-1.9,67.93-1,67.93h61.57c.94,0-.95-67.93-.95-67.93s14.07,3.32,16.46-2.87C409.93,313.67,405.39,299.14,404,296Z" transform="translate(-129.94 -138.86)"/><path class="cls-9" d="M373.52,293.32c-2.6,2.74-6.3,4.13-11,4.13s-8.39-1.38-11-4.11c-3.38-3.56-4.19-8.63-4.36-11.27l-2.79.89c.3,3.18,1.37,8.4,5.08,12.32,3.16,3.32,7.55,5,13.06,5s9.9-1.69,13.05-5c3.72-3.92,4.79-9.14,5.08-12.32l-2.78-.89C377.71,284.7,376.92,289.74,373.52,293.32Z" transform="translate(-129.94 -138.86)"/><path class="cls-23" d="M384.38,328.11l-52.32,16.65-7.63,2.42a7.42,7.42,0,0,1-1.75.22,7.31,7.31,0,0,1-4.55-1.6c-1.77-1.41-3.6-3.57-3.55-5.84l2.48-22.06c3.11,3.57,11.71,2.29,14.64,1.73L331,329.92l1.45-.28,50.49-9.92Z" transform="translate(-129.94 -138.86)"/><path class="cls-21" d="M408.05,317.84c-2.92,3.45-10.85,2.47-14.19,1.88l.58,10.11-1.82-.33-44.69-8.09-1.51-.51a19.68,19.68,0,0,0-9-5.42,2.17,2.17,0,0,0-2.72,1.37s0,.07,0,.11c-2.84-.52-2.57,1.28-3.37,4.28-.87,3.24-.23,8.28,3.42,9.26l10.05,2.77-.05.19,48.36,13.27,7.5,2.06a7.36,7.36,0,0,0,6.29-1.24c1.79-1.35,3.66-3.47,3.69-5.72Z" transform="translate(-129.94 -138.86)"/><path class="cls-23" d="M399.6,321.09a4.94,4.94,0,0,0-.42-.79c-1.58-2.66-4.62-3.23-7.64-3-.52.05-1,.1-1.37.17,0,0,0-.09,0-.13a2.17,2.17,0,0,0-2.89-.94,6,6,0,0,0-3.27,3l-1.06.32,1.45,8.29,6.85,1.24.77-.2c.79-.22,1.59-.47,2.37-.77C398.06,326.9,401.11,324.65,399.6,321.09Z" transform="translate(-129.94 -138.86)"/><path class="cls-21" d="M383.76,242.84l.66-8.56c0-11.2-10.7-20.27-21.89-20.27s-21.89,9.07-21.89,20.27l.66,8.55a4.05,4.05,0,0,0-3.1,3.94V251a4,4,0,0,0,4,4.05c0,10.58,12.71,20.6,20.3,20.6s20.29-10,20.29-20.59a4.06,4.06,0,0,0,4-4.06v-4.21A4.05,4.05,0,0,0,383.76,242.84Z" transform="translate(-129.94 -138.86)"/><path class="cls-14" d="M383.76,242.84l.66-8.56c0-11.2-10.7-20.27-21.89-20.27v28.78c-3,6.29-4.87,15.41-4.87,15.41h4.87v17.43c7.59,0,20.29-10,20.29-20.59a4.06,4.06,0,0,0,4-4.06v-4.21A4.05,4.05,0,0,0,383.76,242.84Z" transform="translate(-129.94 -138.86)"/><path class="cls-4" d="M356.4,245.13a3.2,3.2,0,1,1-3.31-3.09A3.2,3.2,0,0,1,356.4,245.13Z" transform="translate(-129.94 -138.86)"/><path class="cls-24" d="M356.4,244.32a3.2,3.2,0,1,1-3.31-3.09A3.2,3.2,0,0,1,356.4,244.32Z" transform="translate(-129.94 -138.86)"/><path class="cls-16" d="M355.09,243.4a.8.8,0,1,1-.83-.77A.81.81,0,0,1,355.09,243.4Z" transform="translate(-129.94 -138.86)"/><path class="cls-4" d="M375.05,245.13a3.2,3.2,0,1,1-3.31-3.09A3.2,3.2,0,0,1,375.05,245.13Z" transform="translate(-129.94 -138.86)"/><path class="cls-24" d="M375.05,244.32a3.2,3.2,0,1,1-3.31-3.09A3.2,3.2,0,0,1,375.05,244.32Z" transform="translate(-129.94 -138.86)"/><path class="cls-16" d="M373.74,243.4a.8.8,0,1,1-.83-.77A.81.81,0,0,1,373.74,243.4Z" transform="translate(-129.94 -138.86)"/><path class="cls-24" d="M362.53,206.6c-29.91.46-24.61,29.17-22,38.73a.41.41,0,0,0,.8-.11c-.11-6.17.52-19.1,7.78-18a81.08,81.08,0,0,0,26.86,0c7.25-1.06,7.89,11.87,7.78,18a.41.41,0,0,0,.8.11C387.14,235.77,392.43,207.06,362.53,206.6Z" transform="translate(-129.94 -138.86)"/></g><g id="goal_keeper" data-name="goal keeper"><ellipse class="cls-2" cx="384.56" cy="429.33" rx="40.54" ry="10.14"/><polygon class="cls-25" points="397.33 148.2 394.3 146.8 394.3 137.16 374.84 137.16 374.84 146.8 371.8 148.11 372.61 175.45 374.84 175.45 374.84 179.64 394.3 179.64 394.3 175.45 396.52 175.45 397.33 148.2"/><polygon class="cls-4" points="394.29 138.14 394.3 146.8 374.83 141.89 374.83 138.14 394.29 138.14"/><path class="cls-25" d="M511.33,421.15s-2.6,24.35-4.25,39.33c1,13.78-3.51,84.7-3.51,84.7H490.34s-6.66-62-2.75-84.7c-2.28-17.07-2.49-39.33-2.49-39.33Z" transform="translate(-129.94 -138.86)"/><path class="cls-9" d="M507.22,465.3c.12,20.79-3.65,79.88-3.65,79.88H490.34s-5.83-54.31-3.38-79.88Z" transform="translate(-129.94 -138.86)"/><path class="cls-6" d="M497.91,570.65h2a.85.85,0,0,0,.85-.85l.86-3.54a.86.86,0,0,0-.86-.85h-2.81a.85.85,0,0,0-.85.85v3.54A.85.85,0,0,0,497.91,570.65Z" transform="translate(-129.94 -138.86)"/><path class="cls-6" d="M492.17,570.65h-2a.86.86,0,0,1-.86-.85l-.85-3.54a.86.86,0,0,1,.85-.85h2.82a.85.85,0,0,1,.85.85v3.54A.85.85,0,0,1,492.17,570.65Z" transform="translate(-129.94 -138.86)"/><path class="cls-26" d="M500.53,567.63a5.7,5.7,0,0,1-.89.45,12.9,12.9,0,0,1-5.24.94,14.19,14.19,0,0,1-4.46-.61A9.38,9.38,0,0,1,489,568c-6.89-3.34-.92-14.11-1-17-.21-5.33-.89-8.83,2.88-9.7a6.5,6.5,0,0,1,.81-.14s0,0,0-.07c-.45-3.17.23-3.17,3.65-3.17,4.92,0,5.58,1.06,5.57,3.59h0a7.19,7.19,0,0,1,.78.24c3.07,1.15,3.43,4.38,3.43,9.25C505.08,557.28,505.67,564.64,500.53,567.63Z" transform="translate(-129.94 -138.86)"/><path class="cls-8" d="M491.16,556.28c0,.31-.24.62-.55,1-1,1.18-2.9,3.59-.67,11.13A9.38,9.38,0,0,1,489,568c-2.08-7.47,0-10,1-11.25a2.17,2.17,0,0,0,.38-.55,69.36,69.36,0,0,0,.48-14.93,6.5,6.5,0,0,1,.81-.14A70,70,0,0,1,491.16,556.28Z" transform="translate(-129.94 -138.86)"/><path class="cls-8" d="M500.54,558.17a27.53,27.53,0,0,1,0,9.46,5.7,5.7,0,0,1-.89.45,27.51,27.51,0,0,0,.11-9.77,5.72,5.72,0,0,1-.14-1.31,96.53,96.53,0,0,1,1.26-15.5,7.19,7.19,0,0,1,.78.24A97.23,97.23,0,0,0,500.42,557,5.75,5.75,0,0,0,500.54,558.17Z" transform="translate(-129.94 -138.86)"/><path class="cls-9" d="M489.33,550.66a.52.52,0,0,1-.46-.27.53.53,0,0,1,.21-.72c4.16-2.27,12.21-2.06,12.55-2.06a.53.53,0,0,1,.51.55.52.52,0,0,1-.54.51c-.09,0-8.11-.21-12,1.93A.54.54,0,0,1,489.33,550.66Z" transform="translate(-129.94 -138.86)"/><path class="cls-9" d="M501.61,553.47a.47.47,0,0,1-.25-.07c-2.19-1.19-12-2.73-12.11-2.75a.52.52,0,0,1-.44-.6.53.53,0,0,1,.6-.44c.41.07,10.11,1.59,12.45,2.87a.53.53,0,0,1-.25,1Z" transform="translate(-129.94 -138.86)"/><path class="cls-9" d="M501.34,556.75l-.12,0a35.61,35.61,0,0,0-5.91-.72,20.52,20.52,0,0,0-6.09.36.53.53,0,0,1-.64-.29.51.51,0,0,1,.21-.66,18.46,18.46,0,0,1,4-1.68,34.68,34.68,0,0,0-3.57-.63.53.53,0,0,1-.45-.59.52.52,0,0,1,.59-.46,38.33,38.33,0,0,1,5.56,1.13,27.76,27.76,0,0,1,3-.5c.07-.08.22-.13.51-.17v0h.17c.53,0,1.44-.07,3-.1h0a.53.53,0,0,1,.53.52V553a.52.52,0,0,1-.52.53h-.72a30.33,30.33,0,0,0-3.76.3,30.67,30.67,0,0,1,4.46,1.9.53.53,0,0,1-.26,1Zm-7.84-1.84c.56,0,1.19,0,1.86.05s1.47.09,2.1.15c-.75-.28-1.6-.56-2.53-.83-.86.2-1.62.42-2.3.64Z" transform="translate(-129.94 -138.86)"/><path class="cls-9" d="M489.33,553.11a.5.5,0,0,1-.45-.26.52.52,0,0,1,.18-.72c2.88-1.7,12.14-2.1,12.53-2.12a.53.53,0,0,1,.55.51.54.54,0,0,1-.51.55c-.09,0-9.38.4-12,2A.54.54,0,0,1,489.33,553.11Z" transform="translate(-129.94 -138.86)"/><path class="cls-9" d="M501.61,551.07a.57.57,0,0,1-.38-.16c-1.52-1.56-9.13-2.32-11.93-2.48a.54.54,0,0,1-.5-.56.53.53,0,0,1,.56-.49c1.07.06,10.55.66,12.63,2.79a.53.53,0,0,1-.38.9Z" transform="translate(-129.94 -138.86)"/><path class="cls-25" d="M517.68,421.15s2.59,24.35,4.25,39.33c-1,13.78,3.5,84.7,3.5,84.7h13.24s6.65-62,2.75-84.7c2.28-17.07,2.49-39.33,2.49-39.33Z" transform="translate(-129.94 -138.86)"/><path class="cls-9" d="M521.78,465.3c-.11,20.79,3.65,79.88,3.65,79.88h13.24s5.83-54.31,3.38-79.88Z" transform="translate(-129.94 -138.86)"/><path class="cls-6" d="M531.1,570.65h-2a.85.85,0,0,1-.85-.85l-.85-3.54a.85.85,0,0,1,.85-.85h2.82a.85.85,0,0,1,.85.85v3.54A.85.85,0,0,1,531.1,570.65Z" transform="translate(-129.94 -138.86)"/><path class="cls-6" d="M536.84,570.65h2a.85.85,0,0,0,.85-.85l.85-3.54a.85.85,0,0,0-.85-.85h-2.81a.85.85,0,0,0-.85.85v3.54A.85.85,0,0,0,536.84,570.65Z" transform="translate(-129.94 -138.86)"/><path class="cls-26" d="M528.48,567.63a5.7,5.7,0,0,0,.89.45,12.86,12.86,0,0,0,5.24.94,14.19,14.19,0,0,0,4.46-.61A9.38,9.38,0,0,0,540,568c6.88-3.34.92-14.11,1-17,.21-5.33.88-8.83-2.89-9.7a6,6,0,0,0-.8-.14s0,0,0-.07c.45-3.17-.24-3.17-3.65-3.17-4.92,0-5.58,1.06-5.57,3.59h0a7.19,7.19,0,0,0-.78.24c-3.07,1.15-3.43,4.38-3.43,9.25C523.93,557.28,523.33,564.64,528.48,567.63Z" transform="translate(-129.94 -138.86)"/><path class="cls-8" d="M537.85,556.28c0,.31.24.62.55,1,1,1.18,2.9,3.59.67,11.13A9.38,9.38,0,0,0,540,568c2.08-7.47,0-10-1-11.25a2.17,2.17,0,0,1-.38-.55,69.67,69.67,0,0,1-.49-14.93,6,6,0,0,0-.8-.14A68.55,68.55,0,0,0,537.85,556.28Z" transform="translate(-129.94 -138.86)"/><path class="cls-8" d="M528.47,558.17a27.53,27.53,0,0,0,0,9.46,5.7,5.7,0,0,0,.89.45,27.51,27.51,0,0,1-.11-9.77,6.36,6.36,0,0,0,.14-1.31,96.53,96.53,0,0,0-1.26-15.5,7.19,7.19,0,0,0-.78.24A97.23,97.23,0,0,1,528.59,557,5.75,5.75,0,0,1,528.47,558.17Z" transform="translate(-129.94 -138.86)"/><path class="cls-9" d="M539.68,550.66a.54.54,0,0,1-.25-.06c-3.91-2.14-11.94-1.93-12-1.93a.51.51,0,0,1-.54-.51.53.53,0,0,1,.51-.55c.34,0,8.39-.21,12.55,2.06a.53.53,0,0,1-.25,1Z" transform="translate(-129.94 -138.86)"/><path class="cls-9" d="M527.4,553.47a.53.53,0,0,1-.47-.28.53.53,0,0,1,.21-.71c2.35-1.28,12.05-2.8,12.46-2.87a.53.53,0,0,1,.6.44.52.52,0,0,1-.44.6c-.1,0-9.92,1.56-12.11,2.75A.47.47,0,0,1,527.4,553.47Z" transform="translate(-129.94 -138.86)"/><path class="cls-9" d="M527.66,556.75a.53.53,0,0,1-.49-.34.54.54,0,0,1,.24-.65,29.47,29.47,0,0,1,4.46-1.89,28.6,28.6,0,0,0-3.77-.31h-.71a.52.52,0,0,1-.52-.53v-.09a.52.52,0,0,1,.53-.52h0c1.53,0,2.44.05,3,.1h.16v0c.29,0,.44.09.51.17a28.62,28.62,0,0,1,3,.5,38.33,38.33,0,0,1,5.56-1.13.52.52,0,0,1,.59.46.53.53,0,0,1-.46.59,35.67,35.67,0,0,0-3.57.63,18.41,18.41,0,0,1,4.05,1.68.52.52,0,0,1,.21.66.54.54,0,0,1-.64.29,20.09,20.09,0,0,0-6.09-.36,35.61,35.61,0,0,0-5.91.72Zm6.41-2.47c-.93.27-1.77.55-2.52.83.63-.06,1.33-.12,2.09-.15,1-.06,2-.06,2.73,0C535.69,554.7,534.93,554.48,534.07,554.28Z" transform="translate(-129.94 -138.86)"/><path class="cls-9" d="M539.68,553.11a.52.52,0,0,1-.27-.07c-2.65-1.57-11.94-2-12-2a.53.53,0,0,1-.5-.55.52.52,0,0,1,.55-.51c.39,0,9.65.42,12.53,2.12a.52.52,0,0,1,.18.72A.52.52,0,0,1,539.68,553.11Z" transform="translate(-129.94 -138.86)"/><path class="cls-9" d="M527.4,551.07a.51.51,0,0,1-.37-.15.53.53,0,0,1,0-.75c2.08-2.13,11.56-2.73,12.63-2.79a.51.51,0,0,1,.55.49.53.53,0,0,1-.49.56c-2.8.16-10.41.92-11.94,2.48A.54.54,0,0,1,527.4,551.07Z" transform="translate(-129.94 -138.86)"/><path class="cls-26" d="M543.76,383.8H485.25c-3.12,38.57-2.73,49.63-1.75,58.44h29.8l1.2-30.18,1.2,30.18h29.81C546.48,433.43,546.88,422.37,543.76,383.8Z" transform="translate(-129.94 -138.86)"/><path class="cls-27" d="M580.51,333.49l-14-20.5h0c-13.71-20.36-17-18-39.7-26.2,0,0,.72,13.67-12.34,13.68s-12.33-13.68-12.33-13.68c-22.71,8.16-26,5.84-39.7,26.2h0l-14,20.5a7.3,7.3,0,0,0,.38,9.45L471,365.88l8.54-8.74-15.67-17.91,15.84-13.51c1.1-.82,2.58-2.21,2.58-2.21s2.62,23.74,3,43.84c0,0-1.88,25.71-1.49,25.71h61.57c.38,0-1.49-25.71-1.49-25.71.35-20.1,3-43.84,3-43.84s1.48,1.39,2.58,2.21l15.84,13.51-15.67,17.91,8.54,8.74,22.07-22.94A7.32,7.32,0,0,0,580.51,333.49Z" transform="translate(-129.94 -138.86)"/><path class="cls-28" d="M549.58,355.94l-2.38,2.72h0a15.38,15.38,0,0,0-6.73,2.88,2.18,2.18,0,0,0-.32,3.08,2.27,2.27,0,0,0,1.12.81l-1.13,1.29c-2.8,2.13-.51,6.29,1.76,9.27a11,11,0,0,0,2.05,2.18c1.3.94,2.54.78,4.43-.65l10.74-11.82Z" transform="translate(-129.94 -138.86)"/><path class="cls-28" d="M488.87,366.73l-1.13-1.29a2.27,2.27,0,0,0,1.12-.81,2.18,2.18,0,0,0-.32-3.08,15.38,15.38,0,0,0-6.73-2.88h0l-2.38-2.72-9.54,9.77,10.74,11.82c1.88,1.43,3.12,1.59,4.43.65a10.72,10.72,0,0,0,2-2.18C489.38,373,491.67,368.86,488.87,366.73Z" transform="translate(-129.94 -138.86)"/><path class="cls-26" d="M514.5,306c5.51,0,9.9-1.69,13.06-5,3.67-3.86,4.75-9,5.07-12.17l-2.78-.95c-.19,2.67-1,7.66-4.36,11.19-2.6,2.73-6.3,4.11-11,4.11s-8.38-1.38-11-4.11c-3.35-3.53-4.17-8.52-4.36-11.19l-2.78.95c.31,3.18,1.4,8.31,5.07,12.17C504.6,304.3,509,306,514.5,306Z" transform="translate(-129.94 -138.86)"/><path class="cls-26" d="M460.24,337.91a15.05,15.05,0,0,0-6.37-12.3l-5.37,7.88a7.3,7.3,0,0,0,.38,9.45l6.14,6.38A15.07,15.07,0,0,0,460.24,337.91Z" transform="translate(-129.94 -138.86)"/><path class="cls-26" d="M568.77,337.91a15.05,15.05,0,0,1,6.37-12.3l5.37,7.88a7.32,7.32,0,0,1-.38,9.45L574,349.32A15.07,15.07,0,0,1,568.77,337.91Z" transform="translate(-129.94 -138.86)"/><path class="cls-25" d="M535.74,248.58l.66-8.56c0-11.2-10.7-20.27-21.89-20.27s-21.9,9.07-21.9,20.27l.66,8.56a3.91,3.91,0,0,0-1.66.84,4,4,0,0,0-1.43,3.09v4.21a4.06,4.06,0,0,0,4,4.06c0,10.57,12.71,20.59,20.3,20.59s20.29-10,20.29-20.59a4.05,4.05,0,0,0,4-4v-4.22A4.06,4.06,0,0,0,535.74,248.58Z" transform="translate(-129.94 -138.86)"/><path class="cls-14" d="M535.74,248.58l.66-8.56c0-11.2-10.7-20.27-21.89-20.27v28.78c-3,6.29-4.86,15.41-4.86,15.41h4.86v17.43c7.6,0,20.3-10,20.3-20.59a4.05,4.05,0,0,0,4-4v-4.22A4.06,4.06,0,0,0,535.74,248.58Z" transform="translate(-129.94 -138.86)"/><path class="cls-4" d="M508.38,250.87a3.2,3.2,0,1,1-3.31-3.09A3.2,3.2,0,0,1,508.38,250.87Z" transform="translate(-129.94 -138.86)"/><path class="cls-15" d="M508.38,250.06a3.2,3.2,0,1,1-3.31-3.09A3.2,3.2,0,0,1,508.38,250.06Z" transform="translate(-129.94 -138.86)"/><path class="cls-16" d="M507.07,249.15a.8.8,0,0,1-.78.82.79.79,0,0,1-.82-.77.8.8,0,0,1,.77-.83A.81.81,0,0,1,507.07,249.15Z" transform="translate(-129.94 -138.86)"/><path class="cls-4" d="M527,250.87a3.2,3.2,0,1,1-3.31-3.09A3.2,3.2,0,0,1,527,250.87Z" transform="translate(-129.94 -138.86)"/><path class="cls-15" d="M527,250.06a3.2,3.2,0,1,1-3.31-3.09A3.2,3.2,0,0,1,527,250.06Z" transform="translate(-129.94 -138.86)"/><path class="cls-16" d="M525.71,249.15a.79.79,0,0,1-.77.82.8.8,0,0,1-.83-.77.81.81,0,0,1,.78-.83A.8.8,0,0,1,525.71,249.15Z" transform="translate(-129.94 -138.86)"/><path class="cls-18" d="M536.09,226.82c.22-2.71-.64-6.57-2.78-12.07a1.78,1.78,0,0,0-3.07-.44c-2.46,3.1-5.73,2.48-11.1.29-9-3.66-15.57-1.42-19.37,2.55-16.29,8.32-6.34,37.46-6.34,37.46s.34-15.18,5.94-22.14a104.58,104.58,0,0,0,15.14,1.88,105.39,105.39,0,0,0,15.61-1.88c4.15,4.42,5.47,22.14,5.47,22.14S542,238.45,536.09,226.82Z" transform="translate(-129.94 -138.86)"/></g><g id="team_mamager" data-name="team mamager"><ellipse class="cls-2" cx="523.96" cy="427.54" rx="40.54" ry="10.14"/><rect class="cls-29" x="512.19" y="157.03" width="23.78" height="10.09"/><polygon class="cls-25" points="536.85 160.06 533.82 158.66 533.82 149.02 514.36 149.02 514.36 158.66 511.31 159.97 512.13 187.31 514.36 187.31 514.36 191.5 533.82 191.5 533.82 187.31 536.04 187.31 536.85 160.06"/><polygon class="cls-30" points="514.36 149.02 514.36 154.73 533.92 158.03 533.92 149.02 514.36 149.02"/><path class="cls-26" d="M657.67,395.67H624l2.06,163h21.34l3.89-139.6h5.54l8,139.6h21.35l-2-163Z" transform="translate(-129.94 -138.86)"/><path class="cls-18" d="M648.38,564.09c0,6.37-25.13,6.37-25.13,0s4.73-10.72,12.56-10.72S648.38,557.72,648.38,564.09Z" transform="translate(-129.94 -138.86)"/><path class="cls-18" d="M688.85,564.09c0,6.37-25.14,6.37-25.14,0s4.74-10.72,12.57-10.72S688.85,557.72,688.85,564.09Z" transform="translate(-129.94 -138.86)"/><path class="cls-16" d="M667.06,299l-.72,2.71c-1.25,3.59-4.46,9.45-12.08,9.45-8.59,0-11.87-7.46-12.88-10.7L641,299c-15.83,5.94-11,55.51-11,55.51l-.1,41.17h49.59l-.66-41.17S682.89,304.93,667.06,299Z" transform="translate(-129.94 -138.86)"/><polygon class="cls-31" points="528.77 170.95 526.9 174.52 521.21 174.52 519.4 170.95 524.08 167.12 528.77 170.95"/><path class="cls-9" d="M654,306l-6,6.3-10.23-12.21,6.38-3.18,2.41,2.23Z" transform="translate(-129.94 -138.86)"/><polygon class="cls-9" points="533.92 158.03 524.08 167.12 530.07 173.42 540.3 161.21 533.92 158.03"/><polygon class="cls-31" points="526.9 175.38 529.21 249.88 524.08 255.54 518.95 249.88 521.21 175.38 526.9 175.38"/><path class="cls-32" d="M698.57,313.33c-1.55-9.08-15.68-9.09-31.5-15L654,351.08,641,298.3c-15.83,5.94-30,5.95-31.5,15C607,328,621,355.51,621.09,355.43s-.94,44.1-2,59.82h32.46L654,403.9l2.44,11.35h32.46c-1-15.72-2-59.82-2-59.82S701.08,328,698.57,313.33Z" transform="translate(-129.94 -138.86)"/><polygon class="cls-33" points="504.01 161.24 504.32 170.54 508.97 174.36 505.35 179.3 523.96 212.22 512.19 157.03 504.01 161.24"/><polygon class="cls-33" points="544.16 161.24 543.84 170.54 539.2 174.36 542.81 179.3 524.21 212.22 535.97 157.03 544.16 161.24"/><path class="cls-34" d="M622.88,349,624,325l3.24.15-.77,17.3a2.81,2.81,0,0,1,.74,1.69c0,.17,0,.34,0,.51,7.66-1.82,15.36-3.51,22.82-5.15,7.64-1.68,15.54-3.42,23.37-5.28l.75,3.16c-7.86,1.87-15.77,3.6-23.42,5.29-8.41,1.85-17.11,3.76-25.7,5.84h0Z" transform="translate(-129.94 -138.86)"/><polygon class="cls-34" points="490.9 227.16 491.03 222.09 545.94 208.71 547.09 213.44 490.9 227.16"/><path class="cls-32" d="M616.31,364.38a7.33,7.33,0,0,1-4.56-1.59c-1.77-1.42-3.59-3.58-3.55-5.84l1-39.45,16.87-3.14-1.45,32.55,49.17-11.14,2.69,14.17-58.4,14.23A7.48,7.48,0,0,1,616.31,364.38Z" transform="translate(-129.94 -138.86)"/><path class="cls-25" d="M626.58,334.11,641,339l-3.14,11.75-12-3.31c-3.65-1-4.28-6-3.42-9.26S622.93,333.14,626.58,334.11Z" transform="translate(-129.94 -138.86)"/><path class="cls-25" d="M628.58,332.47a19.13,19.13,0,0,1,10.13,6.74,1.88,1.88,0,0,1-1.13,2.64,2.48,2.48,0,0,1-3-1.18,4.79,4.79,0,0,0-.53-.54,14.33,14.33,0,0,0-1.43-1.21,15.27,15.27,0,0,0-5.1-2.54,2,2,0,1,1,1.05-3.91Z" transform="translate(-129.94 -138.86)"/><polygon class="cls-34" points="557.3 228.91 502.87 213.92 504.16 209.23 557.18 223.79 557.3 228.91"/><polygon class="cls-34" points="554.96 210.01 506.91 199.06 507.64 195.89 551.56 205.91 550.79 185.53 554.03 185.41 554.96 210.01"/><path class="cls-32" d="M691.19,366a7.09,7.09,0,0,1-1.88-.25l-55.86-15.33,3.77-14.1,46,10.48L682,315.3,698.86,318l.43,40.84c0,2.25-1.9,4.36-3.7,5.72A7.29,7.29,0,0,1,691.19,366Z" transform="translate(-129.94 -138.86)"/><path class="cls-25" d="M683.17,346c-.56.15-1.12.28-1.66.41l-5.94-1.35-1.47-8.38a28.88,28.88,0,0,1,8.63-2.4c3.31-.28,6.63.42,8.06,3.77C692.61,342.38,687.79,344.76,683.17,346Z" transform="translate(-129.94 -138.86)"/><path class="cls-25" d="M679.24,333.41c-6,2.68-2.86,8.48-2.59,8.12s2.24-3.53,4.23-4.41a2,2,0,1,0-1.64-3.71Z" transform="translate(-129.94 -138.86)"/><path class="cls-25" d="M675.54,258.32l.66-8.57c0-11.19-10.71-20.27-21.9-20.27s-21.89,9.08-21.89,20.27l.66,8.56a4,4,0,0,0-1.66.84,4,4,0,0,0-1.43,3.09v4.22a4.05,4.05,0,0,0,4,4.05c0,10.57,12.7,20.59,20.29,20.59s20.3-10,20.3-20.59a4.05,4.05,0,0,0,4-4.05v-4.22A4,4,0,0,0,675.54,258.32Z" transform="translate(-129.94 -138.86)"/><path class="cls-35" d="M675.54,258.32l.66-8.57c0-11.19-10.71-20.27-21.9-20.27v28.79c-3,6.29-4.86,15.4-4.86,15.4h4.86V291.1c7.6,0,20.3-10,20.3-20.59a4.05,4.05,0,0,0,4-4.05v-4.22A4,4,0,0,0,675.54,258.32Z" transform="translate(-129.94 -138.86)"/><path class="cls-30" d="M648.18,260.6a3.2,3.2,0,1,1-3.32-3.09A3.21,3.21,0,0,1,648.18,260.6Z" transform="translate(-129.94 -138.86)"/><path class="cls-15" d="M648.18,259.79a3.2,3.2,0,1,1-3.32-3.09A3.2,3.2,0,0,1,648.18,259.79Z" transform="translate(-129.94 -138.86)"/><path class="cls-16" d="M646.86,258.88a.8.8,0,0,1-.77.83.81.81,0,0,1-.05-1.61A.8.8,0,0,1,646.86,258.88Z" transform="translate(-129.94 -138.86)"/><path class="cls-30" d="M666.83,260.6a3.21,3.21,0,1,1-3.32-3.09A3.22,3.22,0,0,1,666.83,260.6Z" transform="translate(-129.94 -138.86)"/><path class="cls-15" d="M666.83,259.79a3.21,3.21,0,1,1-3.32-3.09A3.21,3.21,0,0,1,666.83,259.79Z" transform="translate(-129.94 -138.86)"/><path class="cls-16" d="M665.51,258.88a.8.8,0,0,1-.77.83.82.82,0,0,1-.83-.78.8.8,0,1,1,1.6-.05Z" transform="translate(-129.94 -138.86)"/><path class="cls-18" d="M654,225.39c-32.7-4.36-26,32.81-23.8,39.79a12.79,12.79,0,0,0,2.12,3.24c.66,1.25-1.76,25.08,21.68,25.08s21-23.83,21.69-25.08a13.14,13.14,0,0,0,2.11-3.24C679.93,258.2,684.68,229.5,654,225.39Zm19,42.33c0,2.66-1.63,6.6-4,8.35a3.5,3.5,0,0,1-3.48.38c-1.94-.83-6.26-1.57-11.61-1.57s-9.67.74-11.61,1.57a3.51,3.51,0,0,1-3.48-.38c-2.32-1.75-4-5.69-4-8.35,0,0-3.23-11.64-.8-20.2,1.2-4.24,6.39-6.62,10.67-5.55a41,41,0,0,0,18.35,0c4.27-1.07,9.46,1.31,10.66,5.55C676.22,256.08,673,267.72,673,267.72Z" transform="translate(-129.94 -138.86)"/><path class="cls-18" d="M664.42,224c7.46,5.09,9.31,8,12.53,5.62a1.62,1.62,0,0,1,2.61,1c2.22,17.56-19.27,24.51-39.66,10C630.34,233.77,645.29,210.94,664.42,224Z" transform="translate(-129.94 -138.86)"/><path class="cls-25" d="M649,279.33h10.6a.37.37,0,0,1,.25.64c-.76.69-2.4,1.68-5.55,1.68s-4.8-1-5.56-1.68A.37.37,0,0,1,649,279.33Z" transform="translate(-129.94 -138.86)"/><path class="cls-36" d="M676.73,254.94h-4.39a13.08,13.08,0,0,0-6.05-1.19c-4.51,0-7.58.87-9.15,2.56a6,6,0,0,0-6.21,0c-1.57-1.68-4.64-2.55-9.14-2.55a13.08,13.08,0,0,0-6,1.19h-4.42v3.16l1.45.51a7.33,7.33,0,0,0-.21,1.78c0,3.93,1,9.15,9.23,9.15,7.38,0,9.32-4.55,10.24-9a5.43,5.43,0,0,0,.06-1.92,4.54,4.54,0,0,1,3.9,0,5.33,5.33,0,0,0,.06,1.9c.92,4.44,2.86,9,10.24,9,8.27,0,9.23-5.22,9.23-9.15a7.37,7.37,0,0,0-.22-1.79l1.43-.5Zm-26.29,5.28c-1,4.62-2.8,7.7-8.65,7.7-6.68,0-7.61-3.62-7.61-7.53,0-1.24,0-5,7.61-5,5.24,0,7.31,1.19,8.12,2.19A3.05,3.05,0,0,1,650.44,260.22Zm15.85,7.7c-5.85,0-7.69-3.08-8.65-7.7a3.05,3.05,0,0,1,.53-2.66c.81-1,2.88-2.19,8.12-2.19,7.6,0,7.6,3.78,7.6,5C673.89,264.3,673,267.92,666.29,267.92Z" transform="translate(-129.94 -138.86)"/></g></g></g></svg>