<?xml version="1.0" encoding="utf-8"?>
<!-- Generator: Adobe Illustrator 23.0.1, SVG Export Plug-In . SVG Version: 6.00 Build 0)  -->
<svg version="1.1" id="Layer_1" xmlns="http://www.w3.org/2000/svg" xmlns:xlink="http://www.w3.org/1999/xlink" x="0px" y="0px"
	 viewBox="0 0 576 512" style="enable-background:new 0 0 576 512;" xml:space="preserve">
<style type="text/css">
	.st0{opacity:0.4;fill:#5E5E5E;enable-background:new    ;}
	.st1{fill:#5E5E5E;}
</style>
<path class="st0" d="M267.7,192h40.5c6.6,0,12-5.4,12-12c0-0.4,0-0.8-0.1-1.3l-4.6-43.6c-0.4-4.1-3.9-7.2-8-7.2h-39.3
	c-4.1,0-7.6,3.1-8,7.2l-4.6,43.6c-0.7,6.6,4.1,12.5,10.7,13.2C266.9,192,267.3,192,267.7,192z M273.4,96h29.2c4.4,0,8-3.5,8-8
	c0-0.3,0-0.6,0-0.9L308.1,64h-40.2l-2.5,23.2c-0.5,4.4,2.7,8.3,7.1,8.8C272.9,96,273.1,96,273.4,96z M338.3,350.3
	c-0.9-8.1-7.7-14.3-15.9-14.3h-68.8c-8.2,0-15.1,6.2-15.9,14.3L227.4,448h121.2L338.3,350.3z M260.3,304h55.3c8.8,0,16-7.2,16-16
	c0-0.6,0-1.1-0.1-1.7l-5.1-48c-0.9-8.1-7.7-14.3-15.9-14.3h-45.1c-8.2,0-15.1,6.2-15.9,14.3l-5.1,48c-0.9,8.8,5.4,16.7,14.2,17.6
	C259.2,304,259.8,304,260.3,304L260.3,304z"/>
<path class="st1" d="M573.2,402.7l-139.8-320c-5-11.4-15.8-18.7-27.7-18.7h-97.6l2.5,23.2c0.5,4.4-2.7,8.3-7.1,8.8
	c-0.3,0-0.6,0-0.9,0h-29.1c-4.4,0-8-3.5-8-8c0-0.3,0-0.6,0-0.9l2.5-23.2h-97.6c-12.1,0.1-23,7.5-27.7,18.7L2.8,402.7
	C-6.4,423.9,8.3,448,30.5,448h196.8l10.3-97.7c0.9-8.1,7.7-14.3,15.9-14.3h68.8c8.2,0,15.1,6.2,15.9,14.3l10.3,97.7h196.8
	C567.7,448,582.4,423.9,573.2,402.7L573.2,402.7z M255.8,178.7l4.6-43.6c0.4-4.1,3.9-7.2,8-7.2h39.3c4.1,0,7.6,3.1,8,7.2l4.6,43.6
	c0.7,6.6-4.1,12.5-10.7,13.2c-0.4,0-0.9,0.1-1.3,0.1h-40.5c-6.6,0-12-5.4-12-12C255.7,179.6,255.8,179.2,255.8,178.7z M315.6,304
	h-55.3c-8.8,0-16-7.2-16-16c0-0.6,0-1.1,0.1-1.7l5.1-48c0.9-8.1,7.7-14.3,15.9-14.3h45.1c8.2,0,15.1,6.2,15.9,14.3l5.1,48
	c0.9,8.8-5.4,16.7-14.2,17.6C316.8,304,316.2,304,315.6,304z"/>
</svg>
